<svg xmlns="http://www.w3.org/2000/svg" width="600" height="900" viewBox="0 0 600 900">
<defs><linearGradient id="g" x1="0" y1="0" x2="1" y2="1"><stop stop-color="#09111d"/><stop offset="0.55" stop-color="#dc2626" stop-opacity=".82"/><stop offset="1" stop-color="#04070d"/></linearGradient><filter id="blur"><feGaussianBlur stdDeviation="35"/></filter></defs>
<rect width="600" height="900" fill="url(#g)"/>
<circle cx="330" cy="510" r="150" fill="#dc2626" opacity=".3" filter="url(#blur)"/>
<path d="M70 700 C150 470 250 540 300 260 C350 540 460 470 540 700 L540 900 L70 900Z" fill="#050914" opacity=".92"/>
<circle cx="300" cy="285" r="86" fill="#d8e3f3" opacity=".92"/>
<path d="M228 290 Q300 140 372 290 Q345 220 300 214 Q255 220 228 290" fill="#111827"/>
<path d="M235 305 Q300 375 365 305 L350 570 L250 570Z" fill="#111827"/>
<path d="M250 410 L120 610 L190 670 L290 510Z" fill="#111827"/>
<path d="M350 410 L480 610 L410 670 L310 510Z" fill="#111827"/>
<rect x="32" y="40" width="180" height="42" rx="21" fill="#050914" opacity=".72"/><text x="55" y="68" fill="#fff" font-family="Arial" font-weight="700" font-size="22">ANIRILIS ORIGINAL</text>
<text x="40" y="790" fill="#fff" font-family="Arial" font-weight="800" font-size="38">Crimson Rail</text>
<text x="42" y="835" fill="#dbeafe" font-family="Arial" font-size="22">Episode 11 • SUB INDO</text>
</svg>